<svg width="35" height="32" viewBox="0 0 35 32" fill="none" xmlns="http://www.w3.org/2000/svg">
<path d="M35 28.6222C35 29.4311 34.7117 30.0481 34.1352 30.4733C33.5587 30.8985 32.8512 31.1111 32.0126 31.1111H2.98742C2.14885 31.1111 1.4413 30.8933 0.86478 30.4578C0.28826 30.0222 0 29.4104 0 28.6222C0 28 0.188679 27.3674 0.566038 26.7244L15.0629 1.71111C15.7547 0.57037 16.5723 0 17.5157 0C18.4591 0 19.2558 0.57037 19.9057 1.71111L34.434 26.7556C34.8113 27.4193 35 28.0415 35 28.6222ZM19.6855 12.7244V8.18222H15.3145V12.7244C15.3145 13.0148 15.3354 13.2896 15.3774 13.5489C15.4193 13.8081 15.4769 14.0985 15.5503 14.42C15.6237 14.7415 15.6813 15.0163 15.7233 15.2444L16.5409 20.2844H18.3962L19.2453 15.2444C19.2872 15.037 19.3501 14.7674 19.434 14.4356C19.5178 14.1037 19.5807 13.8081 19.6226 13.5489C19.6646 13.2896 19.6855 13.0148 19.6855 12.7244ZM19.6855 24.7644C19.6855 24.163 19.4707 23.6548 19.0409 23.24C18.6111 22.8252 18.0922 22.6178 17.4843 22.6178C16.8973 22.6178 16.3889 22.8252 15.9591 23.24C15.5294 23.6548 15.3145 24.163 15.3145 24.7644C15.3145 25.3659 15.5294 25.8793 15.9591 26.3044C16.3889 26.7296 16.8973 26.9422 17.4843 26.9422C18.0922 26.9422 18.6111 26.7296 19.0409 26.3044C19.4707 25.8793 19.6855 25.3659 19.6855 24.7644Z" fill="#DA2128"/>
</svg>
