<svg width="224" height="59" viewBox="0 0 224 59" fill="none" xmlns="http://www.w3.org/2000/svg">
<path d="M215.445 0.120117C210.721 0.120117 206.891 3.9496 206.891 8.67429C206.891 13.399 210.721 17.2285 215.445 17.2285C220.17 17.2285 223.999 13.399 223.999 8.67429C223.999 3.9496 220.17 0.120117 215.445 0.120117ZM212.014 13.0011C211.864 13.1503 211.715 13.2 211.516 13.2C211.317 13.2 211.168 13.1503 211.019 13.0011C209.875 11.8572 209.229 10.2658 209.229 8.62456C209.229 5.24267 212.014 2.45759 215.396 2.45759C215.793 2.45759 216.092 2.756 216.092 3.15386C216.092 3.55173 215.793 3.85013 215.396 3.85013C212.76 3.85013 210.671 5.98868 210.671 8.57482C210.671 9.81816 211.168 11.0118 212.063 11.907C212.312 12.2551 212.312 12.7027 212.014 13.0011ZM214.053 11.0615C213.904 11.2107 213.754 11.2604 213.555 11.2604C213.356 11.2604 213.207 11.2107 213.058 11.0615C212.461 10.415 212.113 9.5695 212.113 8.67429C212.113 6.83415 213.605 5.34214 215.396 5.34214C215.793 5.34214 216.092 5.64054 216.092 6.03841C216.092 6.43628 215.793 6.73468 215.396 6.73468C214.351 6.73468 213.555 7.58015 213.555 8.67429C213.555 9.17163 213.754 9.66896 214.102 10.0668C214.351 10.3155 214.351 10.7631 214.053 11.0615ZM217.932 10.415C217.932 10.7631 217.634 11.0615 217.285 11.0615C216.937 11.0615 216.639 10.7631 216.639 10.415V9.47003H215.644C215.296 9.47003 214.998 9.17163 214.998 8.82349C214.998 8.47536 215.296 8.17696 215.644 8.17696H217.285C217.634 8.17696 217.932 8.47536 217.932 8.82349V10.415Z" fill="#DA2128"/>
<path d="M4.57549 40.0063H0V19.168H13.4281V23.2958H4.57549V40.0063ZM13.7265 29.612C13.9254 23.6937 18.7993 18.8198 25.2149 18.8198C31.6306 18.8198 36.1066 23.5942 35.8579 29.612C35.659 35.5303 30.8348 40.3545 24.4192 40.3545C18.0036 40.3545 13.5275 35.58 13.7265 29.612ZM31.0835 29.612C31.2327 26.0312 28.6963 23.0472 25.016 23.0472C21.3357 23.0472 18.6501 25.9815 18.5506 29.612C18.4014 33.1928 20.9378 36.1271 24.6181 36.1271C28.2984 36.1271 30.984 33.2426 31.0835 29.612ZM131.744 23.445H125.378V19.2177H142.636V23.445H136.32V40.0561H131.744V23.445ZM182.671 40.0063H178.195V26.3793L169.094 40.0063H164.767V19.2177H169.243V32.8447L178.245 19.4166C178.345 19.2674 178.494 19.168 178.693 19.168H182.671V40.0063ZM185.904 19.168H190.828L196.298 27.9708L201.769 19.168H206.693V40.0063H202.117V26.4291L196.249 35.3314L190.33 26.5285V40.0561H185.854V19.168H185.904ZM54.4583 19.168V39.9566C54.4583 39.9566 54.4583 40.0063 54.4085 40.0063H49.9325C49.9325 40.0063 49.8828 40.0063 49.8828 39.9566V23.3456H43.865V24.9371C43.865 37.1715 41.8757 40.3047 37.1012 40.3047H35.3108C35.5098 38.8625 35.5098 37.5694 35.659 36.326C38.1456 36.326 39.5382 34.7346 39.5382 23.5445V19.2177H54.4583V19.168ZM104.291 29.612C104.49 23.6937 109.115 18.8198 115.531 18.8198C119.46 18.8198 121.599 20.3118 123.488 22.2017L120.654 25.3349C119.112 23.8926 117.769 22.9974 115.382 22.9974C111.901 22.9974 109.265 25.9317 109.115 29.5623C108.966 33.1431 111.353 36.0774 114.934 36.0774C117.322 36.0774 118.814 35.1324 120.504 33.6404L123.29 36.7736C121.052 39.0614 118.664 40.3047 114.636 40.3047C108.469 40.3545 104.092 35.6298 104.291 29.612ZM67.8863 26.2799H63.2114V19.2177C63.2114 19.168 63.2114 19.168 63.1616 19.168H58.6856C58.6359 19.168 58.6359 19.168 58.6359 19.2177V39.9069C58.6359 39.9566 58.6856 40.0063 58.7353 40.0063H63.0124H63.2611H67.1403C72.0142 40.0063 75.1474 37.271 75.2966 32.9939C75.4458 28.9655 72.7105 26.2799 67.8863 26.2799ZM67.1901 35.8784H63.2114V30.2088H67.389C69.6767 30.2088 70.8206 31.2035 70.7211 32.9939C70.6714 34.8838 69.4778 35.8784 67.1901 35.8784ZM92.0071 18.8198H87.4316C81.2647 18.969 77.3357 22.7488 77.1368 27.8713C76.9378 33.1431 81.016 37.1218 87.4316 37.1218V40.2053C87.4316 40.255 87.4316 40.255 87.4814 40.255H91.9574C92.0071 40.255 92.0071 40.255 92.0071 40.2053V37.072C98.2735 36.9726 102.202 32.9939 102.352 27.8713C102.551 22.6493 98.373 18.8198 92.0071 18.8198ZM81.8117 27.9708C81.9112 24.9868 84.1492 22.9974 87.3819 22.898V33.0436C84.1492 32.9939 81.7123 31.0543 81.8117 27.9708ZM97.627 27.9708C97.5275 31.0543 95.2895 32.9939 92.0071 33.0436V22.898C95.2895 22.9477 97.7265 24.9371 97.627 27.9708ZM154.224 19.168H150.146H148.604H145.62C145.62 19.168 145.62 19.168 145.62 19.2177V40.0063V40.0561H150.096C150.096 40.0561 150.146 40.0561 150.146 40.0063V33.7896H153.279C157.954 33.7896 161.783 31.303 161.933 26.4788C162.082 22.152 159.197 19.168 154.224 19.168ZM153.577 29.7115H150.146V23.3456H153.677C155.964 23.3456 157.357 24.4397 157.307 26.4788C157.258 28.3189 155.865 29.7115 153.577 29.7115Z" fill="#495965"/>
<path d="M39.7866 56.7168L40.085 56.1697C40.284 56.3687 40.5326 56.5179 40.831 56.5179C41.2786 56.5179 41.4278 56.3189 41.7262 55.7719L41.8257 55.5729L39.7866 51.6937H40.5326L42.2236 55.0259L43.9145 51.6937H44.6605L42.323 56.0703C41.9749 56.7168 41.6268 57.1147 40.8808 57.1147C40.3834 57.1644 39.9856 56.9655 39.7866 56.7168Z" fill="#495965"/>
<path d="M50.2806 57.065V52.6387L48.4404 57.065H48.1918L46.4013 52.6387V57.065H45.7051V51.6937H46.65L48.341 55.7221L49.9822 51.6937H50.9271V57.065H50.2806Z" fill="#495965"/>
<path d="M56.3979 57.065V54.5783H53.2647V57.065H52.6182V51.6937H53.2647V54.0312H56.3979V51.6937H57.0444V57.065H56.3979Z" fill="#495965"/>
<path d="M59.3819 51.6937V53.8323H60.8739C61.9183 53.8323 62.5648 54.5783 62.5648 55.4237C62.5648 56.3189 61.968 57.0152 60.8739 57.0152H58.7354V51.6937H59.3819ZM59.3819 54.4291V56.4682H60.7744C61.421 56.4682 61.8188 56.0703 61.8188 55.4735C61.8188 54.8767 61.3712 54.4788 60.7744 54.4788H59.3819V54.4291ZM63.1119 51.6937H63.7584V57.0152H63.1119V51.6937Z" fill="#495965"/>
<path d="M65.4492 57.065V51.6937H68.9306V52.2905H66.0957V54.0312H68.8808V54.628H66.0957V56.4682H68.9306V57.065H65.4492Z" fill="#495965"/>
<path d="M72.8594 57.0649V51.7434H74.9979C76.0921 51.7434 76.6889 52.4894 76.6889 53.3349C76.6889 54.2301 76.0921 54.9264 74.9979 54.9264H73.5059V57.0649H72.8594ZM75.9926 53.3349C75.9926 52.7381 75.545 52.3402 74.9482 52.3402H73.5556V54.3793H74.9482C75.5947 54.3296 75.9926 53.9317 75.9926 53.3349Z" fill="#495965"/>
<path d="M77.9819 57.065V51.6937H81.4633V52.2905H78.6285V54.0312H81.4135V54.628H78.6285V56.4682H81.4633V57.065H77.9819Z" fill="#495965"/>
<path d="M89.3717 51.6937V57.065H82.9561V51.6937H83.6026V56.4682H85.8406V51.6937H86.4871V56.4682H88.7251V51.6937H89.3717Z" fill="#495965"/>
<path d="M91.0122 57.065V51.6937H94.5433V52.2905H91.7085V54.0312H94.4438V54.628H91.7085V56.4682H94.5433V57.065H91.0122Z" fill="#495965"/>
<path d="M99.7661 57.065V54.5783H96.6329V57.065H95.9863V51.6937H96.6329V54.0312H99.7661V51.6937H100.462V57.065H99.7661Z" fill="#495965"/>
<path d="M102.103 57.065V51.6937H102.75V55.8713L105.833 51.6937H106.529V57.065H105.833V52.7879L102.75 57.065H102.103Z" fill="#495965"/>
<path d="M107.921 57.0649L109.364 54.8766C108.618 54.8269 107.971 54.2798 107.971 53.3349C107.971 52.3402 108.667 51.7434 109.662 51.7434H111.801V57.0649H111.154V54.9264H110.06L108.717 57.0649H107.921ZM111.154 54.3296V52.2905H109.762C109.115 52.2905 108.717 52.6883 108.717 53.2851C108.717 53.882 109.165 54.3296 109.762 54.3296H111.154Z" fill="#495965"/>
<path d="M115.581 56.5179C116.228 56.4682 116.576 56.2195 116.824 54.3793L117.173 51.6937H120.455V56.4682H120.952V58.0596H120.306V57.065H116.327V58.0596H115.681V56.5179H115.581ZM116.625 56.4682H119.709V52.2905H117.72L117.471 54.4291C117.322 55.5729 117.023 56.1697 116.625 56.4682Z" fill="#495965"/>
<path d="M121.748 56.5676C122.395 56.5676 122.743 56.2194 122.991 54.429L123.34 51.7434H126.622V57.0649H125.975V52.2905H123.986L123.737 54.429C123.439 56.7665 122.792 57.1146 121.848 57.1146V56.5676H121.748Z" fill="#495965"/>
<path d="M127.964 57.0649L129.407 54.8766C128.661 54.8269 128.014 54.2798 128.014 53.3349C128.014 52.3402 128.71 51.7434 129.705 51.7434H131.844V57.0649H131.197V54.9264H130.103L128.76 57.0649H127.964ZM131.197 54.3296V52.2905H129.805C129.158 52.2905 128.76 52.6883 128.76 53.2851C128.76 53.882 129.208 54.3296 129.805 54.3296H131.197Z" fill="#495965"/>
<path d="M135.523 57.065L137.911 54.2301L135.673 51.6937H136.518L138.657 54.2301V51.6937H139.353V54.2301L141.491 51.6937H142.337L140.099 54.2301L142.536 57.065H141.69L139.651 54.628L139.353 55.0259V57.065H138.657V55.0259L138.358 54.628L136.319 57.065H135.523Z" fill="#495965"/>
<path d="M143.681 57.065V51.6937H144.327V55.8713L147.411 51.6937H148.107V57.065H147.411V52.7879L144.327 57.065H143.681Z" fill="#495965"/>
<path d="M149.35 56.2693L149.748 55.8217C150.046 56.2196 150.693 56.518 151.339 56.518C152.185 56.518 152.682 56.1201 152.682 55.5233C152.682 54.8768 152.135 54.5784 151.29 54.5784H150.196V53.9816H151.29C151.986 53.9816 152.583 53.7329 152.583 53.0864C152.583 52.4896 151.986 52.1912 151.29 52.1912C150.693 52.1912 150.196 52.4398 149.798 52.8377L149.45 52.4398C149.847 51.9922 150.544 51.5944 151.389 51.5944C152.434 51.5944 153.279 52.0917 153.279 53.0366C153.279 53.7826 152.633 54.1805 152.135 54.28C152.633 54.3297 153.379 54.7276 153.379 55.573C153.379 56.4683 152.583 57.1148 151.389 57.1148C150.444 57.1645 149.698 56.7667 149.35 56.2693Z" fill="#495965"/>
<path d="M158.65 57.065V54.5783H155.517V57.065H154.821V51.6937H155.517V54.0312H158.65V51.6937H159.297V57.065H158.65Z" fill="#495965"/>
<path d="M160.938 57.065V51.6937H161.634V55.8713L164.668 51.6937H165.364V57.065H164.718V52.7879L161.585 57.065H160.938Z" fill="#495965"/>
</svg>
